Coordinates
version=1
nRows=5
nColumns=40
inDegrees=yes

Units are S.I. units (second, meters, Newtons, ...)
Angles are in degrees.

endheader
time	pelvis_tilt	pelvis_list	pelvis_rotation	pelvis_tx	pelvis_ty	pelvis_tz	hip_flexion_r	hip_adduction_r	hip_rotation_r	knee_angle_r	knee_angle_r_beta	ankle_angle_r	subtalar_angle_r	mtp_angle_r	hip_flexion_l	hip_adduction_l	hip_rotation_l	knee_angle_l	knee_angle_l_beta	ankle_angle_l	subtalar_angle_l	mtp_angle_l	lumbar_extension	lumbar_bending	lumbar_rotation	arm_flex_r	arm_add_r	arm_rot_r	elbow_flex_r	pro_sup_r	wrist_flex_r	wrist_dev_r	arm_flex_l	arm_add_l	arm_rot_l	elbow_flex_l	pro_sup_l	wrist_flex_l	wrist_dev_l
     45.09792857	     -4.75031767	     -4.04250587	     -4.44437522	      1.04461426	      0.92871116	      0.42153254	     23.78946602	     -1.61293981	    -11.79956505	     13.10039021	     13.10039021	      1.41840124	      6.95528664	      5.30228880	      3.14596252	     -5.04720299	    -13.47302211	     14.04492716	     14.04492716	     16.35965501	     -4.43833997	     -5.07335782	     -9.95663222	      5.49510127	      0.95965190	    -14.63812722	    -10.95022141	     -8.82600123	     24.67193494	     46.76319560	      0.00000000	      0.00000000	     24.54830543	    -20.59350836	     -9.58539671	     74.04810880	     47.33818442	      0.00000000	      0.00000000
     45.11085714	     -4.80929176	     -3.96745475	     -4.42341649	      1.04628358	      0.92766051	      0.42354237	     23.47539379	     -1.41172974	    -11.96802357	     13.23178992	     13.23178992	      1.60512469	      6.83617682	      5.14143675	      2.68373019	     -5.06172815	    -13.43933756	     13.98634167	     13.98634167	     16.70769619	     -4.42922953	     -5.16276000	     -9.65404199	      5.41313772	      0.96629610	    -14.77145370	    -10.91205449	     -8.81704000	     24.68465681	     46.75983145	      0.00000000	      0.00000000	     24.15149881	    -20.40332624	     -9.57373142	     73.96795316	     47.33440353	      0.00000000	      0.00000000
     45.12378571	     -4.70963198	     -3.95267484	     -4.39796532	      1.04827213	      0.92690529	      0.42567077	     23.06642774	     -1.21212532	    -12.07542187	     13.73231713	     13.73231713	      1.85551120	      6.51858817	      4.59336709	      1.89727733	     -5.11429025	    -13.50752839	     13.68611253	     13.68611253	     16.99815288	     -4.21740465	     -5.10048580	     -9.51453460	      5.43449255	      1.00408752	    -14.80096318	    -10.94829208	     -8.80024600	     24.82341074	     46.75054202	      0.00000000	      0.00000000	     23.47182583	    -20.10321080	     -9.66137100	     73.80531391	     47.33560987	      0.00000000	      0.00000000
     45.13671429	     -4.56256992	     -3.79860543	     -4.39377597	      1.05043455	      0.92610716	      0.42798034	     22.51422167	     -1.07214019	    -11.54798190	     13.99960329	     13.99960329	      0.84375860	      5.24674074	      0.06475123	      1.08976935	     -5.06147941	    -13.78758486	     13.51651130	     13.51651130	     17.80641748	     -3.48303529	     -4.04799355	     -9.39811794	      5.25620121	      0.63340490	    -14.67201960	    -11.06539885	     -8.28066950	     25.74820784	     46.65170146	      0.00000000	      0.00000000	     22.51589952	    -19.65437161	    -11.30483215	     74.06842640	     47.47362844	      0.00000000	      0.00000000
     45.14964286	     -4.44714069	     -3.79386064	     -4.31827454	      1.05249166	      0.92538774	      0.43025034	     22.25273026	     -0.95459274	    -11.38676687	     14.93781914	     14.93781914	      1.39461478	      4.57486518	     -0.59573268	      0.41234249	     -5.16362250	    -13.74915473	     13.44605984	     13.44605984	     18.11031944	     -3.39697277	     -3.95820725	     -9.26476348	      5.27407294	      0.69696833	    -14.31428809	    -11.11864855	     -8.17030332	     25.79854628	     46.64240896	      0.00000000	      0.00000000	     21.85847966	    -19.42718645	    -11.19810264	     73.69573561	     47.45889891	      0.00000000	      0.00000000
